<?xml version="1.0" encoding="UTF-8" standalone="no"?>
<svg
   xmlns:dc="http://purl.org/dc/elements/1.1/"
   xmlns:cc="http://creativecommons.org/ns#"
   xmlns:rdf="http://www.w3.org/1999/02/22-rdf-syntax-ns#"
   xmlns:svg="http://www.w3.org/2000/svg"
   xmlns="http://www.w3.org/2000/svg"
   xmlns:sodipodi="http://sodipodi.sourceforge.net/DTD/sodipodi-0.dtd"
   xmlns:inkscape="http://www.inkscape.org/namespaces/inkscape"
   version="1.1"
   id="Your_Icon"
   x="0px"
   y="0px"
   width="100.007px"
   height="100.006px"
   viewBox="949.88 444.505 100.007 100.006"
   enable-background="new 949.88 444.505 100.007 100.006"
   xml:space="preserve"
   inkscape:version="0.48.4 r9939"
   sodipodi:docname="icon_12596.svg"><metadata
     id="metadata17"><rdf:RDF><cc:Work
         rdf:about=""><dc:format>image/svg+xml</dc:format><dc:type
           rdf:resource="http://purl.org/dc/dcmitype/StillImage" /></cc:Work></rdf:RDF></metadata><defs
     id="defs15" /><sodipodi:namedview
     pagecolor="#ffffff"
     bordercolor="#666666"
     borderopacity="1"
     objecttolerance="10"
     gridtolerance="10"
     guidetolerance="10"
     inkscape:pageopacity="0"
     inkscape:pageshadow="2"
     inkscape:window-width="1918"
     inkscape:window-height="1053"
     id="namedview13"
     showgrid="false"
     inkscape:zoom="2.3598585"
     inkscape:cx="-0.84700491"
     inkscape:cy="43.646685"
     inkscape:window-x="0"
     inkscape:window-y="25"
     inkscape:window-maximized="0"
     inkscape:current-layer="Your_Icon" /><path
     sodipodi:type="arc"
     style="fill:#0088aa;fill-opacity:1;stroke:none"
     id="path3008"
     sodipodi:cx="-124.58374"
     sodipodi:cy="-41.10416"
     sodipodi:rx="47.460472"
     sodipodi:ry="47.460472"
     d="m -77.123268,-41.10416 a 47.460472,47.460472 0 1 1 -94.920942,0 47.460472,47.460472 0 1 1 94.920942,0 z"
     transform="translate(1124.4672,535.61216)" /><g
     id="g3002"
     style="fill:#ffcc00"
     transform="matrix(1.3303618,0,0,1.3303618,-330.32266,-163.36589)"><path
       style="fill:#ffcc00"
       id="path3"
       d="m 999.883,465.006 c -16.293,0 -29.501,13.209 -29.501,29.498 0,11.296 6.346,21.089 15.664,26.048 0.272,-1.03 0.733,-2.123 1.341,-3.178 -2.752,-1.229 -4.688,-3.989 -4.688,-7.202 v -29.52 c 0,-4.352 3.542,-7.896 7.897,-7.896 h 19.52 c 4.355,0 7.9,3.545 7.9,7.896 v 29.52 c 0,3.507 -2.313,6.447 -5.477,7.481 0.534,0.964 0.937,1.959 1.181,2.898 9.318,-4.959 15.664,-14.752 15.664,-26.048 10e-4,-16.288 -13.208,-29.497 -29.501,-29.497 z"
       inkscape:connector-curvature="0" /><path
       style="fill:#ffcc00"
       id="path5"
       d="M 1012.945,501.846 H 987.77 v 8.326 c 0,1.564 1.269,2.829 2.826,2.829 h 19.52 c 1.562,0 2.829,-1.265 2.829,-2.829 v -8.326 z m -20.134,8.836 c -1.219,0 -2.207,-0.991 -2.207,-2.207 0,-1.223 0.988,-2.214 2.207,-2.214 1.223,0 2.211,0.991 2.211,2.214 -0.001,1.215 -0.989,2.207 -2.211,2.207 z m 15.685,0 c -1.223,0 -2.211,-0.991 -2.211,-2.207 0,-1.223 0.988,-2.214 2.211,-2.214 1.219,0 2.211,0.991 2.211,2.214 0,1.215 -0.992,2.207 -2.211,2.207 z"
       inkscape:connector-curvature="0" /><path
       style="fill:#ffcc00"
       id="path7"
       d="m 1012.945,480.652 c 0,-1.561 -1.268,-2.828 -2.829,-2.828 h -19.52 c -1.558,0 -2.826,1.268 -2.826,2.828 v 16.126 h 25.175 v -16.126 z"
       inkscape:connector-curvature="0" /><path
       style="fill:#ffcc00"
       id="path11"
       d="m 1006.635,518.114 h -13.503 c -0.862,0.705 -2.305,3.164 -2.305,4.24 h -0.611 c 3.031,1.055 6.276,1.655 9.667,1.655 3.392,0 6.637,-0.601 9.668,-1.655 h -0.611 c 0,-1.076 -1.443,-3.535 -2.305,-4.24 z"
       inkscape:connector-curvature="0" /></g></svg>